HIERARCHY
ROOT Hips
{
	OFFSET -0.001795 -0.223333 0.028219
	CHANNELS 6 Xposition Yposition Zposition Zrotation Yrotation Xrotation 
	JOINT LeftUpLeg
	{
		OFFSET 0.069520 -0.091406 -0.006815
		CHANNELS 3 Zrotation Yrotation Xrotation
		JOINT LeftLeg
		{
			OFFSET 0.034277 -0.375199 -0.004496
			CHANNELS 3 Zrotation Yrotation Xrotation
			JOINT LeftFoot
			{
				OFFSET -0.013596 -0.397961 -0.043693
				CHANNELS 3 Zrotation Yrotation Xrotation
				JOINT LeftToe
				{
					OFFSET 0.026358 -0.055791 0.119288
					CHANNELS 3 Zrotation Yrotation Xrotation
					End Site
					{
						OFFSET 0.000000 0.000000 0.000000
					}
				}
			}
		}
	}
	JOINT RightUpLeg
	{
		OFFSET -0.067670 -0.090522 -0.004320
		CHANNELS 3 Zrotation Yrotation Xrotation
		JOINT RightLeg
		{
			OFFSET -0.038290 -0.382569 -0.008850
			CHANNELS 3 Zrotation Yrotation Xrotation
			JOINT RightFoot
			{
				OFFSET 0.015774 -0.398415 -0.042312
				CHANNELS 3 Zrotation Yrotation Xrotation
				JOINT RightToe
				{
					OFFSET -0.025372 -0.048144 0.123348
					CHANNELS 3 Zrotation Yrotation Xrotation
					End Site
					{
						OFFSET 0.000000 0.000000 0.000000
					}
				}
			}
		}
	}
	JOINT Spine
	{
		OFFSET -0.002533 0.108963 -0.026696
		CHANNELS 3 Zrotation Yrotation Xrotation
		JOINT Spine1
		{
			OFFSET 0.005487 0.135180 0.001092
			CHANNELS 3 Zrotation Yrotation Xrotation
			JOINT Spine2
			{
				OFFSET 0.001457 0.052922 0.025425
				CHANNELS 3 Zrotation Yrotation Xrotation
				JOINT Neck
				{
					OFFSET -0.002778 0.213870 -0.042857
					CHANNELS 3 Zrotation Yrotation Xrotation
					JOINT Head
					{
						OFFSET 0.005152 0.064970 0.051349
						CHANNELS 3 Zrotation Yrotation Xrotation
						End Site
						{
							OFFSET 0.000000 0.000000 0.000000
						}
					}
				}
				JOINT LeftShoulder
				{
					OFFSET 0.078845 0.121749 -0.034090
					CHANNELS 3 Zrotation Yrotation Xrotation
					JOINT LeftArm
					{
						OFFSET 0.090977 0.030469 -0.008868
						CHANNELS 3 Zrotation Yrotation Xrotation
						JOINT LeftForeArm
						{
							OFFSET 0.259612 -0.012772 -0.027456
							CHANNELS 3 Zrotation Yrotation Xrotation
							JOINT LeftHand
							{
								OFFSET 0.249234 0.008986 -0.001171
								CHANNELS 3 Zrotation Yrotation Xrotation
								End Site
								{
									OFFSET 0.000000 0.000000 0.000000
								}
							}
						}
					}
				}
				JOINT RightShoulder
				{
					OFFSET -0.081759 0.118833 -0.038615
					CHANNELS 3 Zrotation Yrotation Xrotation
					JOINT RightArm
					{
						OFFSET -0.096012 0.032551 -0.009143
						CHANNELS 3 Zrotation Yrotation Xrotation
						JOINT RightForeArm
						{
							OFFSET -0.253742 -0.013329 -0.021401
							CHANNELS 3 Zrotation Yrotation Xrotation
							JOINT RightHand
							{
								OFFSET -0.255298 0.007772 -0.005559
								CHANNELS 3 Zrotation Yrotation Xrotation
								End Site
								{
									OFFSET 0.000000 0.000000 0.000000
								}
							}
						}
					}
				}
			}
		}
	}
}
MOTION
Frames: 10
Frame Time: 0.050000
0.000000 0.914542 0.000000 -2.335696 -24.907403 2.853253 5.302007 0.135578 -18.414774 -7.035345 5.732824 33.078992 -6.663192 -12.219934 2.826078 0.000000 0.000000 0.000000 -0.913015 0.697128 -7.276530 7.360522 0.187403 18.491280 -55.026032 -51.395487 55.429804 0.000000 0.000000 0.000000 -0.227958 -0.181395 8.038705 -11.018823 5.391960 -0.974420 -3.205256 17.980483 3.340769 12.219009 -7.142884 -10.197035 0.000000 0.000000 0.000000 0.932158 -34.905253 11.602777 5.406502 -53.241302 -6.282211 80.511080 -28.038851 -23.096623 0.000000 0.000000 0.000000 -13.120171 37.670004 9.767991 -36.315565 56.699046 -19.887549 -70.587646 -4.621358 5.254219 0.000000 0.000000 0.000000 
0.007708 0.914750 -0.000794 -2.956710 -26.393158 2.684191 5.112302 0.185396 -18.516264 -6.534665 5.917215 33.875206 -6.156599 -11.175225 2.915703 0.000000 0.000000 0.000000 -1.449584 0.790686 -8.100327 7.677828 0.244004 18.997488 -55.613395 -50.255790 58.255175 0.000000 0.000000 0.000000 0.343419 -0.228254 7.630658 -11.056577 5.800808 0.955575 -4.262561 19.457578 2.896404 14.161927 -8.188116 -11.117562 0.000000 0.000000 0.000000 4.737907 -34.361193 10.587021 8.482456 -56.312420 -8.601106 83.580366 -23.851014 -21.166824 0.000000 0.000000 0.000000 -14.516094 38.321917 9.453837 -37.392295 55.977918 -19.672611 -74.664137 -14.224706 12.612038 0.000000 0.000000 0.000000 
0.016320 0.915123 -0.001501 -3.316360 -27.147301 1.762693 5.044208 0.158869 -17.168096 -6.841987 6.087899 33.259189 -5.814682 -10.674376 2.545502 0.000000 0.000000 0.000000 -1.025144 0.735409 -7.639388 6.338876 0.506071 18.761732 -56.674303 -49.350747 60.914723 0.000000 0.000000 0.000000 1.293194 -0.313454 9.784778 -11.212723 5.530828 -1.015459 -4.386267 20.055663 4.139870 15.145253 -9.481972 -9.443662 0.000000 0.000000 0.000000 3.454207 -35.034305 11.002739 9.068394 -54.547650 -8.460585 85.555871 -25.481503 -23.422169 0.000000 0.000000 0.000000 -18.026291 36.805500 7.719605 -35.599011 57.239722 -19.205986 -75.619833 -14.276052 12.870015 0.000000 0.000000 0.000000 
0.025445 0.917932 -0.002169 -3.363888 -29.015970 1.974540 5.532470 0.358172 -17.249232 -8.523373 7.140443 32.567403 -5.558110 -9.561190 4.124993 0.000000 0.000000 0.000000 -1.191587 0.877585 -8.912018 5.806116 0.851758 20.285402 -52.635776 -48.760947 56.936678 0.000000 0.000000 0.000000 0.729412 -0.246255 9.152180 -11.010139 5.564000 -0.336613 -3.848852 20.615431 4.461647 15.714772 -9.823231 -9.800366 0.000000 0.000000 0.000000 3.926140 -35.738327 11.165408 8.762177 -53.860050 -8.105947 87.479834 -25.140368 -23.762769 0.000000 0.000000 0.000000 -18.535569 37.747998 7.762716 -39.293716 56.747593 -20.988347 -72.341472 -16.118141 13.225976 0.000000 0.000000 0.000000 
0.034998 0.919377 -0.002608 -3.570732 -29.633204 2.542387 5.060967 0.309697 -17.920139 -8.492816 7.149820 32.270808 -5.275201 -8.907229 4.533766 0.000000 0.000000 0.000000 -1.839560 0.981949 -9.789663 6.689268 0.740531 20.532342 -51.133705 -48.850428 54.865269 0.000000 0.000000 0.000000 1.308597 -0.297654 9.144038 -11.054730 5.720146 0.297887 -4.401996 20.429505 3.505854 16.064432 -10.344762 -8.889943 0.000000 0.000000 0.000000 2.331444 -35.464757 11.431906 4.212623 -53.383011 -5.924482 89.991519 -27.276236 -26.776607 0.000000 0.000000 0.000000 -17.560462 36.917235 7.966984 -37.177184 59.050153 -21.158008 -73.260367 -13.436471 11.634307 0.000000 0.000000 0.000000 
0.044709 0.920496 -0.003107 -3.804318 -30.122462 2.795717 4.668749 0.273212 -18.555321 -8.429019 7.231932 32.467588 -5.140815 -8.424163 5.211233 0.000000 0.000000 0.000000 -2.772477 1.024284 -10.128068 8.130201 0.502835 20.679040 -49.222810 -49.013477 51.988750 0.000000 0.000000 0.000000 1.360384 -0.298910 9.434925 -10.138169 5.183570 0.129677 -4.396599 20.386890 3.354184 16.398885 -10.220513 -10.073895 0.000000 0.000000 0.000000 0.797858 -35.441596 11.771799 0.338955 -52.338666 -4.057811 90.724011 -30.482782 -30.116053 0.000000 0.000000 0.000000 -16.581480 37.073736 8.334110 -36.042829 59.369023 -20.846494 -70.292433 -10.727125 9.180402 0.000000 0.000000 0.000000 
0.054280 0.921560 -0.003382 -3.791096 -30.735941 3.060441 4.091024 0.176909 -18.722805 -8.631872 7.242676 31.673966 -4.804993 -7.786068 5.395283 0.000000 0.000000 0.000000 -3.660835 1.099566 -10.720265 9.023547 0.382942 20.714168 -48.077888 -49.046915 50.317647 0.000000 0.000000 0.000000 1.955247 -0.351469 9.447078 -9.972138 5.117366 0.223329 -4.274165 19.994868 3.556495 16.462899 -9.894494 -11.423903 0.000000 0.000000 0.000000 -0.404031 -35.043907 11.950998 -2.839753 -51.630795 -2.588779 91.932676 -32.427052 -32.418522 0.000000 0.000000 0.000000 -15.733455 36.343346 8.415495 -35.552092 61.666553 -21.973126 -69.969631 -7.988041 7.240704 0.000000 0.000000 0.000000 
0.063569 0.922303 -0.003496 -3.640850 -31.726235 3.249473 3.732907 0.158331 -19.048080 -9.278089 7.615244 31.149611 -4.490446 -7.057713 6.000144 0.000000 0.000000 0.000000 -4.573107 1.197013 -11.484740 9.299966 0.401775 20.812124 -46.656375 -48.650360 49.082692 0.000000 0.000000 0.000000 2.586838 -0.401649 9.445348 -9.868593 5.111621 0.423200 -4.259018 19.618885 3.613402 15.994486 -9.516815 -11.763126 0.000000 0.000000 0.000000 -1.935655 -35.122732 12.405865 -3.705895 -51.069354 -2.087170 90.402489 -33.597894 -32.463187 0.000000 0.000000 0.000000 -15.247734 35.229718 8.289275 -34.036906 62.628530 -21.838313 -67.491521 -5.428397 5.234887 0.000000 0.000000 0.000000 
0.072462 0.922361 -0.003430 -3.157251 -33.166323 2.959596 3.081359 0.035936 -18.333879 -10.179885 7.898782 29.488099 -3.793025 -5.938314 5.821891 0.000000 0.000000 0.000000 -5.372421 1.257924 -11.855165 8.727901 0.578648 20.699221 -44.996233 -48.125844 47.377029 0.000000 0.000000 0.000000 3.069296 -0.428430 9.444899 -9.953353 5.309600 1.047140 -4.320964 18.899464 3.599429 14.971115 -8.949188 -11.539984 0.000000 0.000000 0.000000 -1.893393 -35.178138 12.565116 -3.487444 -51.006800 -2.035305 87.096825 -33.203757 -30.027545 0.000000 0.000000 0.000000 -15.327192 34.976107 8.208791 -31.025086 62.168364 -20.245968 -64.351788 -3.303228 3.586649 0.000000 0.000000 0.000000 
0.080795 0.922298 -0.003447 -2.825600 -34.852318 2.198049 2.757205 -0.003636 -17.474198 -11.116655 8.441072 28.546374 -3.184131 -4.847297 6.085809 0.000000 0.000000 0.000000 -5.741515 1.306535 -12.149701 7.617397 0.928667 21.245154 -43.200494 -47.205976 46.242523 0.000000 0.000000 0.000000 3.748455 -0.464549 10.168824 -9.982102 5.360904 1.067524 -4.367031 17.717100 4.175656 13.671874 -8.493830 -10.431903 0.000000 0.000000 0.000000 -1.622165 -35.712997 12.924539 -3.072555 -50.750859 -2.005083 82.920883 -32.196490 -26.674568 0.000000 0.000000 0.000000 -14.993302 35.034218 8.274384 -28.333301 61.467976 -19.002301 -60.716287 0.053241 1.334020 0.000000 0.000000 0.000000 
